<svg xmlns="http://www.w3.org/2000/svg" version="1.1" xmlns:xlink="http://www.w3.org/1999/xlink" xmlns:svgjs="http://svgjs.dev/svgjs" width="100%" height="100%" viewBox="0 0 1000 600"><rect width="1000" height="600" x="0" y="0" fill="#e2d3f4"/><g><rect width="333.3333333333333" height="333.3333333333333" y="172.66342430344227" fill="#013dc4" transform="matrix(0.8308893389689738,0,0,0.8308893389689738,0,18.054232754623797)" x="150.44120788574222"/><path d="M283.42023898530255 411.89245053928533L194.44631941788867 411.89245053928533L194.44631941788867 271.8981247210447L213.83407379320283 271.8981247210447L213.83407379320283 394.9423377959551L283.42023898530255 394.9423377959551L283.42023898530255 411.89245053928533ZM318.3408725969795 284.3414349122186L300.3703517286328 284.3414349122186L300.3703517286328 264.3300977938387L318.3408725969795 264.3300977938387L318.3408725969795 284.3414349122186ZM318.3408725969795 411.89245053928533L300.3703517286328 411.89245053928533L300.3703517286328 304.5511847215738L318.3408725969795 304.5511847215738L318.3408725969795 411.89245053928533ZM397.3091236052035 414.3300921712693L397.3091236052035 414.3300921712693Q386.4814596119725 414.3300921712693 377.9213692298894 409.9650129698097Q369.36127884780626 405.5715890982107 363.8340681706334 396.58632866403735L363.8340681706334 396.58632866403735L362.41683466366595 396.58632866403735L360.5744311046083 411.89245053928533L346.28871735437684 411.89245053928533L346.28871735437684 264.3300977938387L364.2592382227236 264.3300977938387L364.2592382227236 318.0149030377642L365.47805903871557 318.0149030377642Q369.1345214866914 312.28927966961584 374.0381494207987 308.8312299126154Q378.9417773549059 305.37318015561493 385.06422610500516 303.7291892875327Q391.1866748551043 302.08519841945053 398.13111903924465 302.08519841945053L398.13111903924465 302.08519841945053Q410.5744292304185 302.08519841945053 419.95651504654273 308.0092344785743Q429.33860086266696 313.9332705376981 434.5540201683071 326.17816803789646Q439.7694394739471 338.42306553809493 439.7694394739471 357.4139945314582L439.7694394739471 357.4139945314582Q439.7694394739471 377.3969869796986 434.6673988488645 389.95367585142986Q429.56535822378174 402.5103647231611 420.1549277375182 408.43440078228485Q410.772841921394 414.3300921712693 397.3091236052035 414.3300921712693ZM393.029078414162 398.62714491407047L393.029078414162 398.62714491407047Q402.2127515393108 398.62714491407047 408.4202342998281 394.9423377959551Q414.6560617304846 391.28587534797924 417.9156987965096 382.8108189763141Q421.1753358625347 374.335762604649 421.1753358625347 360.4752189065078L421.1753358625347 360.4752189065078L421.1753358625347 356.1668290453269Q421.1753358625347 342.7031107291364 418.1141114874851 334.2280543574713Q415.0528871124355 325.7813426559456 408.7320256713609 321.78474416629746Q402.41116423028626 317.8164903467887 392.40549567109633 317.8164903467887L392.40549567109633 317.8164903467887Q386.7082169730873 317.8164903467887 381.6061763480047 319.65889390584636Q376.504135722922 321.4729527947647 372.5075372332739 325.9797553469211Q368.5392834137652 330.45821322893806 366.3850884831747 338.02624015614407Q364.2592382227236 345.56592241321067 364.2592382227236 356.59199909741704L364.2592382227236 356.59199909741704L364.2592382227236 359.85163616344215Q364.2592382227236 372.4933590455914 367.2070839172158 381.0817940978139Q370.15492961170804 389.641884479897 376.58916973334004 394.1486870320534Q383.02340985497204 398.62714491407047 393.029078414162 398.62714491407047Z " fill="#e2d3f4" transform="matrix(0.8308893389689738,0,0,0.8308893389689738,0,18.054232754623797)"/><path d="M639.3684647643744 384.1735525740009L567.1078795069492 384.1735525740009L567.1078795069492 270.4765055569816L582.8537349755949 270.4765055569816L582.8537349755949 370.4074391672024L639.3684647643744 370.4074391672024L639.3684647643744 384.1735525740009ZM667.7294208131632 280.5823981750159L653.1345781711728 280.5823981750159L653.1345781711728 264.3300970626418L667.7294208131632 264.3300970626418L667.7294208131632 280.5823981750159ZM667.7294208131632 384.1735525740009L653.1345781711728 384.1735525740009L653.1345781711728 296.9958410831217L667.7294208131632 296.9958410831217L667.7294208131632 384.1735525740009ZM731.8638555144015 386.1532946358482L731.8638555144015 386.1532946358482Q723.0701175187543 386.1532946358482 716.1180000457558 382.60817512974955Q709.1658825727573 379.0400353671179 704.6769325488012 371.7426140461227L704.6769325488012 371.7426140461227L703.5259197221459 371.7426140461227L702.0296030474938 384.1735525740009L690.4273937548074 384.1735525740009L690.4273937548074 264.3300970626418L705.0222363967978 264.3300970626418L705.0222363967978 307.9304629363479L706.0121074277214 307.9304629363479Q708.9817205204923 303.28037111666015 712.96422490072 300.47189981962106Q716.9467292809476 297.66342852258185 721.9191046920989 296.3282536436616Q726.8914801032502 294.99307876474137 732.5314429538615 294.99307876474137L732.5314429538615 294.99307876474137Q742.637335571896 294.99307876474137 750.2570404843545 299.8043123801609Q757.8767453968132 304.6155459955804 762.1124725989051 314.56029681788294Q766.3481998009969 324.5050476401855 766.3481998009969 339.92861951736774L766.3481998009969 339.92861951736774Q766.3481998009969 356.15790037320875 762.2045536250375 366.35587401737547Q758.0609074490782 376.5538476615422 750.4181822800864 381.3650812769618Q742.7984773676277 386.1532946358482 731.8638555144015 386.1532946358482ZM728.3877967779022 373.40007251650644L728.3877967779022 373.40007251650644Q735.8463598946291 373.40007251650644 740.8877960753797 370.4074391672024Q745.9522525126634 367.4378260744316 748.5995820139708 360.55476937103236Q751.2469115152783 353.67171266763313 751.2469115152783 342.41480722294335L751.2469115152783 342.41480722294335L751.2469115152783 338.91572822991105Q751.2469115152783 327.98110637668486 748.7607238097025 321.09804967328563Q746.2745361041269 314.23801322641947 741.141018897244 310.99215705525125Q736.0075016903609 307.76932114061617 727.8813511341739 307.76932114061617L727.8813511341739 307.76932114061617Q723.2542795710192 307.76932114061617 719.1106333950598 309.2656378152682Q714.9669872191004 310.7389342333871 711.7211310479322 314.3991550221512Q708.4982951332971 318.0363555543823 706.7487556367809 324.18276404872205Q705.0222363967978 330.30615228652874 705.0222363967978 339.2610320779076L705.0222363967978 339.2610320779076L705.0222363967978 341.90836157921507Q705.0222363967978 352.1753959929811 707.416343076241 359.15053372251276Q709.8104497556842 366.1026511955113 715.0360479886997 369.7628719842755Q720.2616462217152 373.40007251650644 728.3877967779022 373.40007251650644ZM798.9909235649437 384.1735525740009L784.3960809229534 384.1735525740009L784.3960809229534 296.9958410831217L796.1824522679046 296.9958410831217L797.4946068902917 311.40652167284725L798.6686399734803 311.40652167284725Q799.9807945958673 307.2628754968878 802.3058405057112 303.5335939385244Q804.6308864155552 299.8043123801609 808.6133907957828 297.4102057007177Q812.5728749194773 294.99307876474137 818.3739795658205 294.99307876474137L818.3739795658205 294.99307876474137Q820.8601672713961 294.99307876474137 822.9319903593758 295.4074433823373Q825.0038134473556 295.8218079999333 826.0167047348123 296.3282536436616L826.0167047348123 296.3282536436616L826.0167047348123 309.7490632024635L820.5378836799326 309.7490632024635Q814.8979208293212 309.7490632024635 810.8463556794942 311.65974449471145Q806.7717702731342 313.57042578695933 804.1244407718268 317.0464845234587Q801.4771112705193 320.5225432599579 800.2340174177315 325.3337768753774Q798.9909235649437 330.145010490797 798.9909235649437 335.60081128914345L798.9909235649437 335.60081128914345L798.9909235649437 384.1735525740009ZM859.6492995296827 386.1532946358482L859.6492995296827 386.1532946358482Q854.8380659142632 386.1532946358482 850.0498525553768 385.00228180919277Q845.2386189399573 383.8512689825374 841.0949727639978 381.1809192246969Q836.9513265880385 378.5335897233895 834.4651388824628 373.81443713410243Q831.9789511768871 369.09528454481534 831.9789511768871 361.95900501955185L831.9789511768871 361.95900501955185Q831.9789511768871 353.004125228173 836.2837391485783 347.2030205818298Q840.5885271202695 341.40191593548667 848.3003130588605 338.1790800208516Q856.0120989974517 334.9562441062165 866.6244372592145 333.71315025342864Q877.213755264444 332.4700564006409 889.6446937923222 332.4700564006409L889.6446937923222 332.4700564006409L889.6446937923222 322.5253055783383Q889.6446937923222 317.7140719629188 887.9872353219384 314.23801322641947Q886.3297768515547 310.7389342333871 882.1170699059959 308.8512731976723Q877.8813427039041 306.9405919054243 870.1004959957137 306.9405919054243L870.1004959957137 306.9405919054243Q862.6419328789867 306.9405919054243 858.2450638811632 308.8512731976723Q853.8481948833395 310.7389342333871 852.1216756433565 313.73156758269107Q850.3721361468403 316.7242009319951 850.3721361468403 320.36140146422616L850.3721361468403 320.36140146422616L850.3721361468403 322.8475891698018L836.2837391485783 322.8475891698018Q836.1225973528466 322.0188599346099 836.1225973528466 321.19013069941803Q836.1225973528466 320.36140146422616 836.1225973528466 319.2103886375707L836.1225973528466 319.2103886375707Q836.1225973528466 311.2453798771155 840.5194663506701 305.8586398483683Q844.8933150919607 300.47189981962106 852.858323852416 297.7324892921812Q860.8233326128712 294.99307876474137 871.0903670266373 294.99307876474137L871.0903670266373 294.99307876474137Q882.0249888798636 294.99307876474137 889.4144912269911 298.1468539097772Q896.7809733175856 301.30062905481293 900.510254875949 307.10173370115604Q904.2395364343125 312.9028383474992 904.2395364343125 321.0289889036863L904.2395364343125 321.0289889036863L904.2395364343125 368.26655530962347Q904.2395364343125 371.4203304546592 905.7358531089645 372.663424307447Q907.2321697836165 373.90651816023484 909.3730536411955 373.90651816023484L909.3730536411955 373.90651816023484L915.8417457269987 373.90651816023484L915.8417457269987 383.50596513454076Q913.5166998171549 384.49583616546437 910.7082285201158 385.255504631057Q907.8767369665435 385.9921528401164 904.2395364343125 385.9921528401164L904.2395364343125 385.9921528401164Q899.9347484626213 385.9921528401164 897.103256909049 384.2656336001333Q894.2947856120098 382.51609410361715 892.7984689373578 379.4543999847138Q891.3021522627059 376.39270586581046 890.8187268755106 372.57134328131457L890.8187268755106 372.57134328131457L889.6446937923222 372.57134328131457Q886.6750806995512 376.71498945727404 882.1170699059959 379.7766835761774Q877.5590591124407 382.8383776950806 871.9190962618292 384.49583616546437Q866.2791334112178 386.1532946358482 859.6492995296827 386.1532946358482ZM863.309520318447 373.90651816023484L863.309520318447 373.90651816023484Q868.6041793210617 373.90651816023484 873.3233319103488 372.2490596898511Q878.0424844996359 370.59160121946735 881.7027052884 367.50688684403093Q885.3399058206311 364.4451927251276 887.5038099347431 360.14040475343637Q889.6446937923222 355.8356167817453 889.6446937923222 350.7020995748622L889.6446937923222 350.7020995748622L889.6446937923222 343.4046782538671Q876.2238842335204 343.4046782538671 866.7855790549462 344.9009949285191Q857.3242536198388 346.3742913466379 852.2828174390883 350.1956539311338Q847.2183610018045 354.0170165156297 847.2183610018045 360.96913398862824L847.2183610018045 360.96913398862824Q847.2183610018045 365.4350637560512 849.221123320185 368.26655530962347Q851.2008653820321 371.07502660666256 854.8380659142632 372.47926225518216Q858.4982867030274 373.90651816023484 863.309520318447 373.90651816023484ZM942.6833648446025 384.1735525740009L928.1115424591452 384.1735525740009L928.1115424591452 296.9958410831217L939.8748935475634 296.9958410831217L941.2100684264835 311.40652167284725L942.3610812531389 311.40652167284725Q943.6962561320591 307.2628754968878 945.99828178537 303.5335939385244Q948.3233276952138 299.8043123801609 952.3058320754416 297.4102057007177Q956.2883364556692 294.99307876474137 962.0894411020123 294.99307876474137L962.0894411020123 294.99307876474137Q964.575628807588 294.99307876474137 966.6474518955677 295.4074433823373Q968.7192749835474 295.8218079999333 969.709146014471 296.3282536436616L969.709146014471 296.3282536436616L969.709146014471 309.7490632024635L964.2303249595914 309.7490632024635Q958.6133823655131 309.7490632024635 954.538796959153 311.65974449471145Q950.4872318093261 313.57042578695933 947.8399023080186 317.0464845234587Q945.1695525501781 320.5225432599579 943.9264586973903 325.3337768753774Q942.6833648446025 330.145010490797 942.6833648446025 335.60081128914345L942.6833648446025 335.60081128914345L942.6833648446025 384.1735525740009ZM990.5885186899997 414.3300886323721L990.5885186899997 414.3300886323721Q986.606014309772 414.3300886323721 983.7054619866004 413.7545822190444Q980.8049096634289 413.17907580571676 979.8150386325053 413.0179340099849L979.8150386325053 413.0179340099849L979.8150386325053 402.4055957482223L987.1124599535004 402.4055957482223Q991.0949643337282 402.4055957482223 994.8933066616909 400.74813727783857Q998.7146692461869 399.0906788074547 1002.0295861869544 395.1081744272271Q1005.3445031277219 391.12567004699946 1007.6695490375657 384.1735525740009L1007.6695490375657 384.1735525740009L973.8527921904304 296.9958410831217L989.0922020153477 296.9958410831217L1006.4955159543772 341.90836157921507Q1007.6695490375657 345.0621367242508 1009.2349264818171 349.6201475178062Q1010.8233241826015 354.1781583113615 1012.3887016268528 358.989391926781Q1013.9540790711042 363.77760528566745 1014.9669703585608 367.4378260744316L1014.9669703585608 367.4378260744316L1015.9568413894845 367.4378260744316Q1016.6244288289446 364.79049657312413 1017.6142998598683 361.47557963235664Q1018.6041708907919 358.16066269158915 1019.686122947848 354.5925229289574Q1020.7680750049041 351.02438316632566 1021.827006805427 347.8015472516906Q1022.908958862483 344.5556910805224 1023.5765463019433 342.0695033749468L1023.5765463019433 342.0695033749468L1038.3325307396653 296.9958410831217L1053.0885151773873 296.9958410831217L1023.5765463019433 381.6873648684253Q1021.0903585963675 388.82364439368865 1018.0977252470635 394.85495160536294Q1015.1281121542926 400.9092790735703 1011.4678913655285 405.2140670452614Q1007.8306908332975 409.5418752734857 1002.6971736264144 411.9359819529289Q997.5636564195314 414.3300886323721 990.5885186899997 414.3300886323721Z " fill="#013dc4" transform="matrix(0.8308893389689738,0,0,0.8308893389689738,0,18.054232754623797)"/></g></svg>